<?xml version="1.0" encoding="UTF-8" standalone="no"?>
<!-- Created with Inkscape (http://www.inkscape.org/) -->

<svg
   width="424.18597mm"
   height="176.30661mm"
   viewBox="0 0 424.18598 176.30662"
   version="1.1"
   id="svg1"
   xml:space="preserve"
   inkscape:version="1.4 (86a8ad7, 2024-10-11)"
   sodipodi:docname="LAB.svg"
   xmlns:inkscape="http://www.inkscape.org/namespaces/inkscape"
   xmlns:sodipodi="http://sodipodi.sourceforge.net/DTD/sodipodi-0.dtd"
   xmlns="http://www.w3.org/2000/svg"
   xmlns:svg="http://www.w3.org/2000/svg"><sodipodi:namedview
     id="namedview1"
     pagecolor="#ffffff"
     bordercolor="#000000"
     borderopacity="0.25"
     inkscape:showpageshadow="2"
     inkscape:pageopacity="0.0"
     inkscape:pagecheckerboard="0"
     inkscape:deskcolor="#d1d1d1"
     inkscape:document-units="mm"
     inkscape:zoom="0.49999998"
     inkscape:cx="1126"
     inkscape:cy="-834.00003"
     inkscape:window-width="1920"
     inkscape:window-height="995"
     inkscape:window-x="-9"
     inkscape:window-y="-9"
     inkscape:window-maximized="1"
     inkscape:current-layer="g1"
     showguides="false"><sodipodi:guide
       position="185.09907,-237.61562"
       orientation="0,-1"
       id="guide1972"
       inkscape:locked="false" /><sodipodi:guide
       position="1996.1892,384.63224"
       orientation="0,-1"
       id="guide251"
       inkscape:locked="false" /><sodipodi:guide
       position="2454.9182,-399.29257"
       orientation="0,-1"
       id="guide263"
       inkscape:locked="false" /><inkscape:page
       x="-4.4105586e-13"
       y="5.2346035e-15"
       width="424.186"
       height="176.30661"
       id="page1"
       margin="0"
       bleed="0" /></sodipodi:namedview><defs
     id="defs1" /><g
     id="g1"
     inkscape:groupmode="layer"
     inkscape:label="1"
     transform="matrix(0.26458333,0,0,0.26458335,-316.52514,595.55871)"><g
       id="g2"
       transform="translate(1225.2768,-2384.229)"
       inkscape:export-filename="file.svg"
       inkscape:export-xdpi="96"
       inkscape:export-ydpi="96"><path
         style="fill:#ebece0;fill-opacity:1;stroke:#000000;stroke-width:8.93858;stroke-dasharray:none;stroke-opacity:1"
         d="m 782.21196,580.39772 1.4401,93.4861 77.2295,-0.0368 c 16.1639,2.06787 20.8849,16.84541 20.587,25.1414 l -0.121,74.16038 c -2.6748,18.65439 -20.129,21.40929 -31.0186,21.11487 l -183.1239,0.92037 c -5.1168,-0.40117 -18.4392,-3.49723 -20.9953,-22.79102 l -0.4895,-72.94005 c 1.0999,-18.5931 18.3072,-25.88786 28.1924,-25.28959 l 68.1234,0.10159 0.6801,-90.75524 -151.7206,1.34794 0.3457,49.60587 -477.3704,-0.38596 0.33,76.83162 55.3132,0.003 0.0227,48.28926 -42.14496,0.83987 0.2436,14.98321 -123.1117209,0.94639 c 0,0 -28.2168701,-2.98429 -29.0972901,-29.62498 -0.88042,-26.64069 28.5164801,-34.08496 28.5164801,-34.08496 l 86.1707299,-1.04386 -2.3707,-77.38671 -44.7543,0.27777 -21.8543,0.13565 0.6224,-395.75323 566.706801,-0.0347 0.2995,49.41432 55.3557,-0.35601 -0.3851,-120.66507 c 0,0 1.833,-29.46127 30.8399,-29.07774 30.766,0.40682 30.87,30.73831 30.87,30.73831 l 0.2485,62.60014 110.551,-0.40987 0.2185,-65.76645 c 0,0 1.1715,-25.64603 31.1825,-26.82099 27.85206,-1.09043 30.0728,26.51906 30.0728,26.51906 l 0.7144,125.74204 64.3876,-0.78956 -0.7989,-49.85339 566.0101,0.52502 1.0943,390.46363 -70.9868,0.51564 -0.1221,67.07253 104.361,0.89377 c 0,0 27.9104,6.09552 27.3062,32.31436 -0.6041,26.21895 -26.9976,30.51838 -26.9976,30.51838 l -148.4744,1.52843 -0.5356,-63.20903 13.4089,-0.35259 -1.5812,-69.8086 -467.7285,-0.18384 0.1862,-49.58707 z"
         id="path251"
         sodipodi:nodetypes="ccccccccccccccccccccczccccccccccsccccsccccccccczcccccccc" /><path
         style="fill:#c8ab37;fill-opacity:1;stroke:#240101;stroke-width:0.986363;stroke-opacity:1"
         d="m 125.28247,745.796 -0.1288,-18.59469 2.6527,-0.0172 -0.076,-11.41023 37.09238,-0.54976 0.13742,39.74014 -37.8439,0.24615 -0.065,-9.35578 z m 6.53457,1.85048 0.0167,-12.66234 c 0.0163,-12.34559 0.0196,-12.66884 0.13131,-12.92252 0.2863,-0.64976 0.84703,-1.18184 1.52924,-1.45113 l 0.4251,-0.1678 h 11.28279 c 9.89725,0 11.31482,0.0111 11.54362,0.0871 0.36597,0.12225 0.51573,0.19885 0.85896,0.43938 0.35339,0.24766 0.55998,0.49716 0.82072,0.99124 l 0.1907,0.36136 v 12.77797 12.77798 l -0.20759,0.39896 c -0.35985,0.69159 -0.79446,1.07607 -1.56349,1.38304 l -0.31534,0.12587 -11.08781,0.007 c -6.0983,0.003 -11.1681,-0.005 -11.26666,-0.0148 -1.97839,-0.19551 -2.17345,-0.0392 -2.35825,-2.13131 z m 24.50225,0.18622 c -0.0876,0.0219 0.20841,-0.1603 0.28316,-0.26789 l 0.13592,-0.19561 v -12.26942 -12.26941 l -0.13592,-0.19562 c -0.0748,-0.10763 -0.20216,-0.22825 -0.28316,-0.26813 -0.11677,-0.0576 -2.42688,-0.0697 -11.16735,-0.0587 l -11.02013,0.0138 -0.20182,0.22646 -0.20182,0.22645 v 12.30306 c 0,8.4923 0.0195,12.34422 0.0628,12.4359 0.0346,0.073 0.14816,0.19135 0.25251,0.2629 l 0.18974,0.1301 10.96944,-8e-4 c 8.65505,-6.3e-4 11.24221,-0.10449 11.11667,-0.0731 z m -16.83309,-2.08401 c -0.066,-0.19447 -0.12471,-0.16516 -0.15451,-7.7304 -0.0219,-5.56773 -0.0478,-7.58464 -0.098,-7.63329 -0.0376,-0.0363 -0.11798,-0.0568 -0.17884,-0.0455 -0.1057,0.0197 -0.11197,0.16117 -0.14046,3.19991 -0.023,2.45582 -0.0476,3.21241 -0.10759,3.32487 -0.0964,0.18026 -0.40605,0.39092 -0.68442,0.46546 -0.24274,0.065 -0.71822,-0.061 -0.88867,-0.23566 -0.28372,-0.29058 -0.2865,-0.32751 -0.2865,-3.8035 0,-3.36078 0.0262,-3.82328 0.24032,-4.2329 0.19136,-0.36619 0.53546,-0.59072 1.05917,-0.69109 0.48948,-0.0938 6.08334,-0.077 6.54776,0.0197 0.55785,0.11615 0.87153,0.37237 1.0697,0.87376 0.10814,0.27371 0.11425,0.4802 0.11425,3.87944 0,3.98421 0.0212,3.77255 -0.40562,4.04653 -0.48802,0.31324 -1.19497,0.12558 -1.43377,-0.3806 -0.0472,-0.10014 -0.0774,-1.10199 -0.098,-3.26052 -0.027,-2.82566 -0.0391,-3.12161 -0.12914,-3.17668 -0.072,-0.044 -0.12525,-0.0399 -0.19374,0.0152 -0.0852,0.0686 -0.0945,0.80571 -0.0946,7.59984 0,7.30523 -0.003,7.52909 -0.11414,7.70504 -0.20038,0.31873 -0.48303,0.4837 -0.82871,0.4837 -0.46399,0 -0.79741,-0.2402 -0.95497,-0.68799 -0.0496,-0.1409 -0.0695,-1.23769 -0.07,-3.87388 -4e-4,-2.02252 -0.024,-3.71262 -0.0521,-3.75578 -0.0318,-0.0487 -0.0986,-0.0639 -0.1759,-0.0401 -0.12458,0.0383 -0.12466,0.0406 -0.14158,3.86559 -0.0157,3.54083 -0.10715,3.81624 -0.12294,4.01545 -0.0381,0.48074 -1.51868,0.51991 -1.677,0.0534 z m 11.67628,-5.7816 c -0.0726,0.0566 -0.84918,-0.67399 -0.99201,-0.8489 -1.27013,-1.55532 -1.5886,-1.95385 -1.64873,-2.06322 -0.0914,-0.16615 -0.0851,-0.36919 0.0153,-0.49755 0.0757,-0.0967 0.25064,-0.10326 2.68979,-0.10015 2.40153,0.003 2.6151,0.0113 2.68723,0.10348 0.14523,0.18547 0.0964,0.43224 -0.14136,0.71452 -0.12295,0.14594 -0.39792,0.48268 -0.61103,0.74829 -0.56469,0.70378 -1.56371,1.60413 -1.99919,1.94353 z m -2.5891,-6.2821 c -0.24908,-0.17792 -0.15709,-0.45907 0.23607,-0.92688 0.12026,-0.1431 0.38724,-0.46832 0.59327,-0.72274 0.20604,-0.25439 0.44995,-0.55361 0.54203,-0.66491 0.0922,-0.1113 0.3849,-0.46906 0.6507,-0.79501 0.30272,-0.37123 0.5247,-0.59265 0.59415,-0.59265 0.14346,0 0.28499,0.12309 0.63157,0.54929 0.15516,0.1908 0.35724,0.43797 0.44906,0.54928 0.21477,0.26033 0.64154,0.78985 1.12647,1.3977 0.21123,0.26477 0.4017,0.49442 0.42325,0.51031 0.17658,0.13023 0.22083,0.48721 0.0825,0.66492 -0.0873,0.11203 -0.16998,0.11615 -2.64899,0.13188 -2.50384,0.0159 -2.54564,-0.005 -2.68001,-0.10114 z m -7.53465,-5.9082 c -0.36019,-0.0668 -0.85189,-0.36613 -1.08875,-0.66271 -0.32586,-0.40802 -0.40599,-0.64119 -0.40503,-1.1786 0.001,-0.63825 0.15291,-0.98878 0.59955,-1.38472 1.08084,-0.95811 2.73138,-0.54942 3.20584,0.79382 0.29549,0.83657 -0.16877,1.91921 -0.98021,2.28578 -0.44013,0.19883 -0.82236,0.24087 -1.3314,0.14643 z"
         id="path248-2"
         sodipodi:nodetypes="ccccccccccssscsssscccssccscsscccssscccssscssssssssssssssssssssssssssssssssssssssssssssssssssssssssssssss" /><path
         style="fill:#7e744a;fill-opacity:1;stroke:#fe0606;stroke-width:1.00157"
         d="m 651.16986,742.0978 94.6408,-0.8325 0.2219,33.05649 -17.3244,0.0279 c 4.1356,14.76294 12.1394,13.8553 17.8659,15.43741 l -77.3185,1.00865 c -20.577,-2.37008 -19.2144,-21.18316 -18.5276,-48.74212 z"
         id="path242"
         sodipodi:nodetypes="cccccccc" /><path
         style="fill:#7e744a;fill-opacity:1;stroke:#fe0606;stroke-width:1.00285"
         d="m 651.27996,725.8198 93.928,0.22535 -0.2224,-33.14168 -17.323,0.20486 c 3.9368,-14.85523 11.8719,-13.43147 17.5766,-15.09446 l -78.1974,0.83734 c -19.8634,0.60504 -16.4832,22.8809 -16.6457,47.01275 z"
         id="path243"
         sodipodi:nodetypes="cccccccc" /><path
         style="fill:#7e744a;fill-opacity:1;stroke:#fe0606;stroke-width:1.00157"
         d="m 650.48746,726.52178 94.7267,0.3722 0.2705,3.24614 -10.2971,0.0691 c -0.5999,7.19315 7.6285,8.94609 10.3042,10.32768 l -94.806,0.80993 z"
         id="path245"
         sodipodi:nodetypes="ccccccc" /><path
         style="fill:#7e744a;fill-opacity:1;stroke:#fe0606;stroke-width:1.16282"
         d="m 781.21536,767.20686 0.073,7.95308 c 10.1773,0.96543 16.0946,2.10991 20.942,13.16556 l -21.4854,0.42381 40.1085,-0.1864 -0.045,-21.38687 z"
         id="path246"
         sodipodi:nodetypes="ccccccc" /><path
         style="fill:#7e744a;fill-opacity:1;stroke:#fe0606;stroke-width:1.15365"
         d="m 781.22216,766.56261 -0.028,-4.52153 c 10.0228,-1.06299 17.5712,-2.27139 22.1534,-13.3477 l -21.0331,-0.2127 37.8631,-0.24313 0.3114,17.96063 z"
         id="path247"
         sodipodi:nodetypes="ccccccc" /><path
         style="fill:#c8ab37;fill-opacity:1;stroke:#240101;stroke-width:0.986363;stroke-opacity:1"
         d="m 780.95046,740.82541 -0.1288,-18.59469 2.6527,-0.0172 -0.076,-10.96829 36.9598,-0.2404 0.27,38.98884 -37.8439,0.24615 -0.065,-9.35578 z m 6.53457,1.85048 0.0167,-12.66234 c 0.0163,-12.34559 0.0196,-12.66884 0.13131,-12.92252 0.2863,-0.64976 0.84703,-1.18184 1.52924,-1.45113 l 0.4251,-0.1678 h 11.28279 c 9.89725,0 11.31482,0.0111 11.54362,0.0871 0.36597,0.12225 0.51573,0.19885 0.85896,0.43938 0.35339,0.24766 0.55998,0.49716 0.82072,0.99124 l 0.1907,0.36136 v 12.77797 12.77798 l -0.20759,0.39896 c -0.35985,0.69159 -0.79446,1.07607 -1.56349,1.38304 l -0.31534,0.12587 -11.08781,0.007 c -6.0983,0.003 -11.1681,-0.005 -11.26666,-0.0148 -1.97839,-0.19551 -2.17345,-0.0392 -2.35825,-2.13131 z m 24.50225,0.18622 c -0.0876,0.0219 0.20841,-0.1603 0.28316,-0.26789 l 0.13592,-0.19561 v -12.26942 -12.26941 l -0.13592,-0.19562 c -0.0748,-0.10763 -0.20216,-0.22825 -0.28316,-0.26813 -0.11677,-0.0576 -2.42688,-0.0697 -11.16735,-0.0587 l -11.02013,0.0138 -0.20182,0.22646 -0.20182,0.22645 v 12.30306 c 0,8.4923 0.0195,12.34422 0.0628,12.4359 0.0346,0.073 0.14816,0.19135 0.25251,0.2629 l 0.18974,0.1301 10.96944,-8e-4 c 8.65505,-6.3e-4 11.24221,-0.10449 11.11667,-0.0731 z m -16.83309,-2.08401 c -0.066,-0.19447 -0.12471,-0.16516 -0.15451,-7.7304 -0.0219,-5.56773 -0.0478,-7.58464 -0.098,-7.63329 -0.0376,-0.0363 -0.11798,-0.0568 -0.17884,-0.0455 -0.1057,0.0197 -0.11197,0.16117 -0.14046,3.19991 -0.023,2.45582 -0.0476,3.21241 -0.10759,3.32487 -0.0964,0.18026 -0.40605,0.39092 -0.68442,0.46546 -0.24274,0.065 -0.71822,-0.061 -0.88867,-0.23566 -0.28372,-0.29058 -0.2865,-0.32751 -0.2865,-3.8035 0,-3.36078 0.0262,-3.82328 0.24032,-4.2329 0.19136,-0.36619 0.53546,-0.59072 1.05917,-0.69109 0.48948,-0.0938 6.08334,-0.077 6.54776,0.0197 0.55785,0.11615 0.87153,0.37237 1.0697,0.87376 0.10814,0.27371 0.11425,0.4802 0.11425,3.87944 0,3.98421 0.0212,3.77255 -0.40562,4.04653 -0.48802,0.31324 -1.19497,0.12558 -1.43377,-0.3806 -0.0472,-0.10014 -0.0774,-1.10199 -0.098,-3.26052 -0.027,-2.82566 -0.0391,-3.12161 -0.12914,-3.17668 -0.072,-0.044 -0.12525,-0.0399 -0.19374,0.0152 -0.0852,0.0686 -0.0945,0.80571 -0.0946,7.59984 0,7.30523 -0.003,7.52909 -0.11414,7.70504 -0.20038,0.31873 -0.48303,0.4837 -0.82871,0.4837 -0.46399,0 -0.79741,-0.2402 -0.95497,-0.68799 -0.0496,-0.1409 -0.0695,-1.23769 -0.07,-3.87388 -4e-4,-2.02252 -0.024,-3.71262 -0.0521,-3.75578 -0.0318,-0.0487 -0.0986,-0.0639 -0.1759,-0.0401 -0.12458,0.0383 -0.12466,0.0406 -0.14158,3.86559 -0.0157,3.54083 -0.10715,3.81624 -0.12294,4.01545 -0.0381,0.48074 -1.51868,0.51991 -1.677,0.0534 z m 11.67628,-5.7816 c -0.0726,0.0566 -0.84918,-0.67399 -0.99201,-0.8489 -1.27013,-1.55532 -1.5886,-1.95385 -1.64873,-2.06322 -0.0914,-0.16615 -0.0851,-0.36919 0.0153,-0.49755 0.0757,-0.0967 0.25064,-0.10326 2.68979,-0.10015 2.40153,0.003 2.6151,0.0113 2.68723,0.10348 0.14523,0.18547 0.0964,0.43224 -0.14136,0.71452 -0.12295,0.14594 -0.39792,0.48268 -0.61103,0.74829 -0.56469,0.70378 -1.56371,1.60413 -1.99919,1.94353 z m -2.5891,-6.2821 c -0.24908,-0.17792 -0.15709,-0.45907 0.23607,-0.92688 0.12026,-0.1431 0.38724,-0.46832 0.59327,-0.72274 0.20604,-0.25439 0.44995,-0.55361 0.54203,-0.66491 0.0922,-0.1113 0.3849,-0.46906 0.6507,-0.79501 0.30272,-0.37123 0.5247,-0.59265 0.59415,-0.59265 0.14346,0 0.28499,0.12309 0.63157,0.54929 0.15516,0.1908 0.35724,0.43797 0.44906,0.54928 0.21477,0.26033 0.64154,0.78985 1.12647,1.3977 0.21123,0.26477 0.4017,0.49442 0.42325,0.51031 0.17658,0.13023 0.22083,0.48721 0.0825,0.66492 -0.0873,0.11203 -0.16998,0.11615 -2.64899,0.13188 -2.50384,0.0159 -2.54564,-0.005 -2.68001,-0.10114 z m -7.53465,-5.9082 c -0.36019,-0.0668 -0.85189,-0.36613 -1.08875,-0.66271 -0.32586,-0.40802 -0.40599,-0.64119 -0.40503,-1.1786 10e-4,-0.63825 0.15291,-0.98878 0.59955,-1.38472 1.08084,-0.95811 2.73138,-0.54942 3.20584,0.79382 0.29549,0.83657 -0.16877,1.91921 -0.98021,2.28578 -0.44013,0.19883 -0.82236,0.24087 -1.3314,0.14643 z"
         id="path248"
         sodipodi:nodetypes="ccccccccccssscsssscccssccscsscccssscccssscssssssssssssssssssssssssssssssssssssssssssssssssssssssssssssss" /><path
         d="m 861.94214,678.53794 -80.2481,0.53711 0.1602,24.06249 43.1894,0.0859 0.4668,69.56054 c 0,0 1.5255,16.08111 25.6914,16.45313 23.9799,0.36907 25.7364,-15.10494 26.6563,-17.47852 l 0.1426,-75.20312 c -0.6008,-9.13143 -5.9506,-14.69531 -16.0586,-18.01757 z m -11.1485,23.37695 v 3.69531 l -24.1074,0.0254 v -3.69726 z m 25.625,0.125 v 3.69531 l -24.1074,0.0254 v -3.69726 z m -25.621,5.63476 v 3.69532 l -24.1074,0.0254 v -3.69727 z m 25.6249,0.125 v 3.69532 l -24.1074,0.0254 v -3.69727 z m -25.621,5.63477 v 3.69531 l -24.1074,0.0254 v -3.69726 z m 25.625,0.125 v 3.69531 l -24.1074,0.0254 v -3.69726 z m -25.6211,5.85547 v 3.69726 l -24.1094,0.0234 v -3.69531 z m 25.625,0.125 v 3.69726 l -24.1094,0.0234 v -3.69531 z m -25.6211,6.18945 v 3.69531 l -24.1094,0.0254 v -3.69531 z m 25.625,0.125 v 3.69531 l -24.1094,0.0254 v -3.69531 z m -25.6211,5.74609 v 3.69532 l -24.1094,0.0254 v -3.69727 z m 25.625,0.125 v 3.69532 l -24.1094,0.0254 v -3.69727 z m -25.6192,5.85547 v 3.69727 l -24.1094,0.0234 v -3.69532 z m 25.625,0.125 v 3.69727 l -24.1094,0.0234 v -3.69532 z m -25.6211,5.9668 v 3.69726 l -24.1094,0.0254 v -3.69726 z m 25.625,0.125 v 3.69726 l -24.1094,0.0254 v -3.69726 z m -25.6211,5.85742 v 3.69531 l -24.1094,0.0254 v -3.69726 z m 25.625,0.125 v 3.69531 l -24.1094,0.0254 v -3.69726 z m -25.621,5.63476 v 3.69532 l -24.1094,0.0254 v -3.69727 z m 25.625,0.125 v 3.69532 l -24.1094,0.0254 v -3.69727 z m -25.6211,6.07813 v 3.69531 l -24.1074,0.0254 v -3.69726 z m 25.625,0.125 v 3.69531 l -24.1074,0.0254 v -3.69726 z m -25.6211,5.52344 v 3.69726 l -24.1074,0.0234 v -3.69531 z m 25.625,0.125 v 3.69726 l -24.1074,0.0234 v -3.69531 z"
         style="fill:#f2f2f2;stroke:#000000;stroke-width:0.377953;stroke-dasharray:none;stroke-opacity:1"
         id="path310" /><path
         d="m 1474.0269,758.53206 72.7953,-0.36698 c 0,0 17.7089,-1.67878 18.157,-25.8434 0.4444,-23.97861 -17.7765,-28.30779 -20.1472,-29.23515 l -70.8518,-0.0536 z m 2.7549,-26.0054 3.6953,0.0116 -0.05,24.10736 -3.6973,-0.0116 z m 0.2056,-25.62448 3.6953,0.0116 -0.05,24.10736 -3.6972,-0.0116 z m 5.5542,25.63859 3.6953,0.0116 -0.05,24.10736 -3.6972,-0.0117 z m 0.2056,-25.62438 3.6954,0.0116 -0.051,24.10736 -3.6971,-0.0117 z m 5.5542,25.63858 3.6954,0.0116 -0.05,24.10736 -3.6973,-0.0117 z m 0.2056,-25.62448 3.6954,0.0116 -0.05,24.10736 -3.6972,-0.0115 z m 5.7749,25.63938 3.6972,0.0117 -0.052,24.10936 -3.6953,-0.0116 z m 0.2055,-25.62448 3.6972,0.0117 -0.052,24.10935 -3.6952,-0.0116 z m 6.1089,25.64043 3.6953,0.0116 -0.05,24.10936 -3.6954,-0.0116 z m 0.2056,-25.62448 3.6953,0.0116 -0.05,24.10936 -3.6954,-0.0116 z m 5.6655,25.63904 3.6954,0.0116 -0.051,24.10935 -3.6973,-0.0116 z m 0.2056,-25.62447 3.6952,0.0116 -0.05,24.10936 -3.6972,-0.0115 z m 5.7749,25.63747 3.6973,0.0117 -0.053,24.10934 -3.6953,-0.0116 z m 0.2055,-25.62447 3.6973,0.0117 -0.052,24.10936 -3.6952,-0.0116 z m 5.8863,25.63973 3.6972,0.0116 -0.05,24.10937 -3.6972,-0.0115 z m 0.2056,-25.62448 3.6971,0.0117 -0.05,24.10936 -3.6973,-0.0117 z m 5.7768,25.63939 3.6952,0.0116 -0.05,24.10937 -3.6973,-0.0116 z m 0.2056,-25.62448 3.6953,0.0116 -0.05,24.10935 -3.6974,-0.0117 z m 5.5542,25.63859 3.6954,0.0116 -0.05,24.10937 -3.6974,-0.0117 z m 0.2056,-25.62448 3.6952,0.0116 -0.05,24.10937 -3.6973,-0.0117 z m 5.9975,25.64009 3.6953,0.0116 -0.05,24.10736 -3.6972,-0.0117 z m 0.2056,-25.62449 3.6953,0.0116 -0.05,24.10736 -3.6972,-0.0117 z m 5.4429,25.63835 3.6972,0.0116 -0.052,24.10735 -3.6954,-0.0116 z m 0.2055,-25.62449 3.6972,0.0117 -0.052,24.10735 -3.6952,-0.0116 z"
         style="fill:#f2f2f2;stroke:#000000;stroke-width:0.377953;stroke-dasharray:none;stroke-opacity:1"
         id="path310-2"
         sodipodi:nodetypes="ccsccccccccccccccccccccccccccccccccccccccccccccccccccccccccccccccccccccccccccccccccccccccccccccccccccccccccccccccccccccccccccc" /><path
         d="m 874.39254,235.34631 -0.4644,-76.98382 c 0,0 -1.70217,-18.72559 -25.86271,-19.16524 -23.97456,-0.43601 -27.0285,18.83955 -27.95251,21.34799 l 0.0413,74.92907 z m -26.00406,-2.8766 0.007,-3.90796 24.10276,0.0187 -0.007,3.91007 z m -25.61979,-0.18113 0.007,-3.90797 24.10276,0.0187 -0.007,3.90997 z m 25.62619,-5.91014 0.007,-3.90796 24.10275,0.0187 -0.007,3.90997 z m -25.6197,-0.18113 0.007,-3.90807 24.10276,0.0198 -0.007,3.90986 z m 25.62618,-5.91013 0.007,-3.90808 24.10276,0.0187 -0.007,3.91007 z m -25.61979,-0.18114 0.007,-3.90807 24.10276,0.0187 -0.007,3.90997 z m 25.62668,-6.14354 0.007,-3.90997 24.10476,0.0208 -0.007,3.90796 z m -25.61979,-0.18103 0.007,-3.90997 24.10474,0.0208 -0.007,3.90786 z m 25.62728,-6.49675 0.007,-3.90797 24.10477,0.0187 -0.007,3.90807 z m -25.61979,-0.18114 0.007,-3.90796 24.10477,0.0187 -0.007,3.90807 z m 25.62648,-6.02784 0.007,-3.90807 24.10475,0.0198 -0.007,3.91008 z m -25.61978,-0.18114 0.007,-3.90786 24.10475,0.0187 -0.007,3.90997 z m 25.62477,-6.14353 0.007,-3.91008 24.10474,0.0219 -0.007,3.90798 z m -25.61978,-0.18103 0.007,-3.91008 24.10476,0.0208 -0.007,3.90786 z m 25.62688,-6.26135 0.007,-3.90997 24.10476,0.0187 -0.007,3.90998 z m -25.61979,-0.18113 0.007,-3.90986 24.10476,0.0187 -0.007,3.91008 z m 25.62669,-6.14555 0.007,-3.90786 24.10476,0.0187 -0.007,3.91008 z m -25.6198,-0.18114 0.007,-3.90796 24.10475,0.0187 -0.007,3.91018 z m 25.62619,-5.91013 0.007,-3.90807 24.10477,0.0187 -0.007,3.91019 z m -25.61979,-0.18113 0.007,-3.90786 24.10476,0.0187 -0.007,3.91009 z m 25.62709,-6.37895 0.007,-3.90797 24.10276,0.0187 -0.007,3.90997 z m -25.6198,-0.18114 0.007,-3.90796 24.10276,0.0187 -0.007,3.90997 z m 25.6261,-5.79243 0.007,-3.90997 24.10275,0.0208 -0.007,3.90807 z m -25.61981,-0.18103 0.007,-3.90997 24.10275,0.0208 -0.007,3.90785 z"
         style="fill:#f2f2f2;stroke:#000000;stroke-width:0.388638;stroke-dasharray:none;stroke-opacity:1"
         id="path310-2-4"
         sodipodi:nodetypes="ccsccccccccccccccccccccccccccccccccccccccccccccccccccccccccccccccccccccccccccccccccccccccccccccccccccccccccccccccccccccccccccc" /><path
         d="m 701.14254,236.84631 -0.4644,-76.98382 c 0,0 -1.70217,-18.72559 -25.86271,-19.16524 -23.97456,-0.43601 -27.0285,18.83955 -27.95251,21.34799 l 0.0413,74.92907 z m -26.00406,-2.8766 0.007,-3.90796 24.10276,0.0187 -0.007,3.91007 z m -25.61979,-0.18113 0.007,-3.90797 24.10276,0.0187 -0.007,3.90997 z m 25.62619,-5.91014 0.007,-3.90796 24.10275,0.0187 -0.007,3.90997 z m -25.6197,-0.18113 0.007,-3.90807 24.10276,0.0198 -0.007,3.90986 z m 25.62618,-5.91013 0.007,-3.90808 24.10276,0.0187 -0.007,3.91007 z m -25.61979,-0.18114 0.007,-3.90807 24.10276,0.0187 -0.007,3.90997 z m 25.62668,-6.14354 0.007,-3.90997 24.10476,0.0208 -0.007,3.90796 z m -25.61979,-0.18103 0.007,-3.90997 24.10474,0.0208 -0.007,3.90786 z m 25.62728,-6.49675 0.007,-3.90797 24.10477,0.0187 -0.007,3.90807 z m -25.61979,-0.18114 0.007,-3.90796 24.10477,0.0187 -0.007,3.90807 z m 25.62648,-6.02784 0.007,-3.90807 24.10475,0.0198 -0.007,3.91008 z m -25.61978,-0.18114 0.007,-3.90786 24.10475,0.0187 -0.007,3.90997 z m 25.62477,-6.14353 0.007,-3.91008 24.10474,0.0219 -0.007,3.90798 z m -25.61978,-0.18103 0.007,-3.91008 24.10476,0.0208 -0.007,3.90786 z m 25.62688,-6.26135 0.007,-3.90997 24.10476,0.0187 -0.007,3.90998 z m -25.61979,-0.18113 0.007,-3.90986 24.10476,0.0187 -0.007,3.91008 z m 25.62669,-6.14555 0.007,-3.90786 24.10476,0.0187 -0.007,3.91008 z m -25.6198,-0.18114 0.007,-3.90796 24.10475,0.0187 -0.007,3.91018 z m 25.62619,-5.91013 0.007,-3.90807 24.10477,0.0187 -0.007,3.91019 z m -25.61979,-0.18113 0.007,-3.90786 24.10476,0.0187 -0.007,3.91009 z m 25.62709,-6.37895 0.007,-3.90797 24.10276,0.0187 -0.007,3.90997 z m -25.6198,-0.18114 0.007,-3.90796 24.10276,0.0187 -0.007,3.90997 z m 25.6261,-5.79243 0.007,-3.90997 24.10275,0.0208 -0.007,3.90807 z m -25.61981,-0.18103 0.007,-3.90997 24.10275,0.0208 -0.007,3.90785 z"
         style="fill:#f2f2f2;stroke:#000000;stroke-width:0.388638;stroke-dasharray:none;stroke-opacity:1"
         id="path311"
         sodipodi:nodetypes="ccsccccccccccccccccccccccccccccccccccccccccccccccccccccccccccccccccccccccccccccccccccccccccccccccccccccccccccccccccccccccccccc" /><path
         d="m 75.103941,716.59707 -76.9849133,0.21778 c 0,0 -18.7309477,1.64218 -19.2479917,25.80118 -0.512808,23.97304 18.7528707,27.08872 21.25833772,28.02076 l 74.92881728,0.19873 z m -2.95989,25.99471 -3.907913,-0.0195 0.09591,-24.10258 3.910032,0.0195 z m -0.2632,25.61907 -3.907923,-0.0195 0.09591,-24.10257 3.909932,0.0195 z m -5.828014,-25.64499 -3.907917,-0.0195 0.09591,-24.10257 3.909928,0.0195 z m -0.263199,25.61899 -3.908028,-0.0195 0.09701,-24.10257 3.909818,0.0195 z m -5.828009,-25.64498 -3.908037,-0.0195 0.09591,-24.10257 3.910027,0.0195 z m -0.26321,25.61908 -3.908027,-0.0195 0.09591,-24.10258 3.909927,0.0195 z m -6.061415,-25.64623 -3.909928,-0.0195 0.09802,-24.10457 3.907918,0.0195 z m -0.2631,25.61908 -3.909928,-0.0195 0.09802,-24.10455 3.907818,0.0195 z m -6.414622,-25.64796 -3.907928,-0.0195 0.09592,-24.10459 3.908028,0.0195 z m -0.26321,25.61908 -3.907918,-0.0195 0.09592,-24.10459 3.908028,0.0195 z m -5.945717,-25.64566 -3.908028,-0.0195 0.09702,-24.10456 3.910038,0.0195 z m -0.26321,25.61907 -3.907818,-0.0195 0.09592,-24.10457 3.909928,0.0195 z m -6.061412,-25.64432 -3.910038,-0.0195 0.09912,-24.10454 3.907937,0.0195 z m -0.2631,25.61907 -3.910038,-0.0195 0.09802,-24.10457 3.907817,0.0195 z m -6.179225,-25.64681 -3.909927,-0.0195 0.09592,-24.10458 3.909938,0.0195 z m -0.2632,25.61908 -3.909817,-0.0195 0.09592,-24.10457 3.910038,0.0195 z m -6.063425,-25.64625 -3.907818,-0.0195 0.09592,-24.10458 3.910038,0.0195 z m -0.26321,25.61909 -3.907918,-0.0195 0.09592,-24.10456 3.910138,0.0195 z m -5.828009,-25.64499 -3.908028,-0.0195 0.09592,-24.10458 3.910148,0.0195 z m -0.2632,25.61908 -3.907817,-0.0195 0.09592,-24.10458 3.910048,0.0195 z m -6.2968233,-25.64739 -3.907928,-0.0195 0.09591,-24.10258 3.909928,0.0195 z m -0.26321,25.61908 -3.907918,-0.0195 0.09591,-24.10257 3.909928,0.0195 z m -5.710309,-25.64452 -3.90992798,-0.0195 0.09801,-24.10256 3.90802798,0.0195 z m -0.2631,25.6191 -3.909928,-0.0195 0.09801,-24.10256 3.907808,0.0195 z"
         style="fill:#f2f2f2;stroke:#000000;stroke-width:0.388638;stroke-dasharray:none;stroke-opacity:1"
         id="path312"
         sodipodi:nodetypes="ccsccccccccccccccccccccccccccccccccccccccccccccccccccccccccccccccccccccccccccccccccccccccccccccccccccccccccccccccccccccccccccc" /></g><g
       id="g1973"
       transform="translate(306.64172,-1471.4684)"><path
         style="fill:#000000;fill-opacity:1;stroke:#fe0606;stroke-width:0.957317;stroke-opacity:1"
         d="m 1744.6941,-534.4837 -0.089,-53.01796 28.4293,-0.28168 0.1826,13.01679 c 4.4896,0.29828 12.5181,-3.6436 13.5717,-13.10696 l 11.8911,-0.12196 -0.2173,53.69168 z"
         id="1081"
         sodipodi:nodetypes="cccccccc"
         inkscape:label="1081" /><path
         style="fill:#000000;fill-opacity:1;stroke:#fe0606;stroke-width:2.47844;stroke-opacity:1"
         d="m 1513.8502,-417.34214 -0.7112,-170.02801 28.7329,-0.26524 0.2696,11.63975 c 9.386,0.89767 11.5986,-2.99687 12.2713,-11.69218 l 71.5483,0.18296 -0.01,153.75755 c -2.0563,0.0278 -10.6385,1.32828 -11.1613,12.71201 l 11.4302,0.19643 0.01,3.36785 z"
         id="1038"
         sodipodi:nodetypes="ccccccccccc"
         inkscape:label="1038" /><path
         style="fill:#000000;fill-opacity:1;stroke:#fe0606;stroke-width:1.03148;stroke-opacity:1"
         d="m 1455.4082,-677.80848 0.3649,57.39821 -7.7109,0.0455 0.1296,-12.83022 c -4.8159,-0.30303 -11.6432,2.73017 -12.725,12.98011 l -37.5806,-0.14989 -0.1351,-57.40018 z"
         id="1009"
         sodipodi:nodetypes="cccccccc"
         inkscape:label="1009" /><path
         style="fill:#000000;fill-opacity:1;stroke:#fe0606;stroke-width:1.0125;stroke-opacity:1"
         d="m 1284.9527,-677.99258 0.3515,57.41718 -7.4273,0.0455 0.1248,-12.83446 c -4.6387,-0.30314 -11.2149,2.73107 -12.2569,12.9844 l -36.1983,-0.14994 -0.1302,-57.41915 z"
         id="1006"
         sodipodi:nodetypes="cccccccc"
         inkscape:label="1006" /><path
         style="fill:#000000;fill-opacity:1;stroke:#fe0606;stroke-width:1.0208;stroke-opacity:1"
         d="m 1228.0737,-677.92312 0.3573,57.40889 -7.5507,0.0455 0.1268,-12.83261 c -4.7157,-0.30309 -11.4012,2.73068 -12.4605,12.98253 l -36.7998,-0.14992 -0.1323,-57.41085 z"
         id="1005"
         sodipodi:nodetypes="cccccccc"
         inkscape:label="1005" /><path
         style="fill:#000000;fill-opacity:1;stroke:#fe0606;stroke-width:1.01763;stroke-opacity:1"
         d="m 1115.0904,-677.93031 -0.3551,57.41206 7.5034,0.0455 -0.1261,-12.83332 c 4.6863,-0.3031 11.33,2.73083 12.3826,12.98325 l 36.5694,-0.14993 0.1315,-57.41402 z"
         id="1004"
         sodipodi:nodetypes="cccccccc"
         inkscape:label="1004" /><path
         style="fill:#000000;fill-opacity:1;stroke:#fe0606;stroke-width:1.02261;stroke-opacity:1"
         d="m 1114.5247,-678.17597 0.3586,57.40708 -7.5777,0.0455 0.1273,-12.83221 c -4.7326,-0.30308 -11.442,2.7306 -12.5051,12.98212 l -36.9314,-0.14991 -0.1327,-57.40905 z"
         id="1003"
         sodipodi:nodetypes="cccccccc"
         inkscape:label="1003" /><path
         style="fill:#000000;fill-opacity:1;stroke:#fe0606;stroke-width:1.46894;stroke-opacity:1"
         d="m 936.9486,-677.14711 0.1424,56.19983 68.6375,-0.35718 0.094,-13.58411 c 9.8419,-0.30073 13.3626,7.66962 13.6105,13.72133 l 37.4823,0.392 0.276,-56.96303 z"
         id="1002"
         sodipodi:nodetypes="cccccccc"
         inkscape:label="1002" /><path
         style="fill:#000000;fill-opacity:1;stroke:#fe0606;stroke-opacity:1"
         d="m 936.6819,-565.53657 57.4301,0.26852 0.036,-7.24356 -12.8371,0.13831 c -0.309,-4.5235 2.7175,-10.94092 12.9718,-11.97039 l -0.1956,-35.57142 -57.4318,0.21655 z"
         id="1011"
         sodipodi:nodetypes="cccccccc"
         inkscape:label="1011" /><path
         style="fill:#000000;fill-opacity:1;stroke:#fe0606;stroke-width:1.02715;stroke-opacity:1"
         d="m 936.7372,-565.1016 57.4029,-0.28343 0.036,7.64587 -12.831,-0.14599 c -0.3089,4.77474 2.7162,11.54858 12.9656,12.63523 l -0.1955,37.26298 -57.4046,0.0555 z"
         id="1012"
         sodipodi:nodetypes="cccccccc"
         inkscape:label="1012" /><path
         style="fill:#000000;fill-opacity:1;stroke:#fe0606;stroke-width:1.02321;stroke-opacity:1"
         d="m 936.6474,-450.53627 57.4069,0.28124 0.036,-7.5867 -12.8319,0.14486 c -0.309,-4.73779 2.7164,-11.45921 12.9665,-12.53745 l -0.1956,-36.97461 -57.4085,-0.0551 z"
         id="1013"
         sodipodi:nodetypes="cccccccc"
         inkscape:label="1013" /><path
         style="fill:#000000;fill-opacity:1;stroke:#fe0606;stroke-width:1.03187;stroke-opacity:1"
         d="m 936.4441,-450.177 57.3983,-0.28607 0.036,7.71688 -12.83,-0.14735 c -0.3089,4.81908 2.716,11.65584 12.9646,12.75257 l -0.1956,37.60904 -57.3999,0.056 z"
         id="1014"
         sodipodi:nodetypes="cccccccc"
         inkscape:label="1014" /><path
         style="fill:#000000;fill-opacity:1;stroke:#fe0606;stroke-width:1.02162;stroke-opacity:1"
         d="m 936.3429,-335.22536 57.4085,0.28037 0.036,-7.56304 -12.8323,0.14441 c -0.3089,-4.723 2.7165,-11.42346 12.9669,-12.49834 l -0.1956,-36.85926 -57.4101,-0.0549 z"
         id="1015"
         sodipodi:nodetypes="cccccccc"
         inkscape:label="1015" /><path
         style="fill:#000000;fill-opacity:1;stroke:#fe0606;stroke-width:1.01447;stroke-opacity:1"
         d="m 936.2804,-334.57987 57.4156,-0.27642 0.036,7.45654 -12.8338,-0.14238 c -0.309,4.6565 2.7168,11.26261 12.9685,12.32235 l -0.1956,36.34023 -57.4173,0.0541 z"
         id="1016"
         sodipodi:nodetypes="cccccccc"
         inkscape:label="1016" /><path
         style="fill:#000000;fill-opacity:1;stroke:#fe0606;stroke-opacity:1"
         d="m 1107.9638,-274.11823 0.09,-57.43063 -7.2437,-0.0136 0.1782,12.83659 c -4.5225,0.32311 -10.9493,-2.68351 -12.0106,-12.9345 l -35.3015,0.30533 0.1259,57.43165 z"
         id="1017"
         sodipodi:nodetypes="cccccccc"
         inkscape:label="1017" /><path
         style="fill:#000000;fill-opacity:1;stroke:#fe0606;stroke-width:1.03158;stroke-opacity:1"
         d="m 1109.8673,-273.62646 -0.096,-57.3991 7.7126,-0.0136 -0.1897,12.82954 c 4.8153,0.32293 11.6583,-2.68204 12.7883,-12.9274 l 37.5873,0.30516 -0.134,57.40012 z"
         id="1018"
         sodipodi:nodetypes="cccccccc"
         inkscape:label="1018" /><path
         style="fill:#000000;fill-opacity:1;stroke:#fe0606;stroke-width:1.02713;stroke-opacity:1"
         d="m 1224.9256,-273.87801 0.095,-57.40354 -7.6456,-0.0136 0.1881,12.83054 c -4.7735,0.32295 -11.557,-2.68225 -12.6773,-12.9284 l -37.2607,0.30518 0.1329,57.40456 z"
         id="1019"
         sodipodi:nodetypes="cccccccc"
         inkscape:label="1019" /><path
         style="fill:#000000;fill-opacity:1;stroke:#fe0606;stroke-opacity:1"
         d="m 1225.9905,-273.75749 -0.09,-57.43063 7.2436,-0.0136 -0.1782,12.83659 c 4.5225,0.32311 10.9493,-2.68351 12.0107,-12.9345 l 35.3015,0.30533 -0.1259,57.43165 z"
         id="1020"
         sodipodi:nodetypes="cccccccc"
         inkscape:label="1020" /><path
         style="fill:#000000;fill-opacity:1;stroke:#fe0606;stroke-width:1.02264;stroke-opacity:1"
         d="m 1338.2765,-274.03608 -0.1596,-47.70625 15.0348,-0.27636 0.032,-9.43954 8.0487,-0.0294 0.095,13.36962 c 4.7314,0.32298 11.8305,-2.77213 12.9409,-13.01908 l 20.8038,-0.11375 -0.1317,57.40904 z"
         id="1022"
         sodipodi:nodetypes="cccccccccc"
         inkscape:label="1022" /><path
         style="fill:#000000;fill-opacity:1;stroke:#fe0606;stroke-width:1.08394;stroke-opacity:1"
         d="m 1451.2282,-273.76615 -0.1061,-57.34683 8.5232,-0.0136 -0.2097,12.81786 c 5.3214,0.32264 12.8835,-2.67959 14.1323,-12.91562 l 41.5372,0.30488 -0.1481,57.34784 z"
         id="1024"
         sodipodi:nodetypes="cccccccc"
         inkscape:label="1024" /><path
         style="fill:#000000;fill-opacity:1;stroke:#fe0606;stroke-opacity:1"
         d="m 1450.0385,-273.83634 0.09,-57.43063 -7.2436,-0.0136 0.1782,12.83659 c -4.5225,0.32311 -10.9493,-2.68351 -12.0107,-12.9345 l -35.3015,0.30533 0.1259,57.43165 z"
         id="1023"
         sodipodi:nodetypes="cccccccc"
         inkscape:label="1023" /><path
         style="fill:#000000;fill-opacity:1;stroke:#fe0606;stroke-width:1.02306;stroke-opacity:1"
         d="m 1337.1021,-273.75629 4e-4,-47.99128 -13.983,-0.11783 -0.032,-9.43948 -8.0553,-0.0294 -0.095,13.36952 c -4.7354,0.32298 -11.8404,-2.77211 -12.9517,-13.01899 l -20.8211,-0.11375 0.1317,57.40865 z"
         id="1021"
         sodipodi:nodetypes="cccccccccc"
         inkscape:label="1021" /><path
         style="fill:#000000;fill-opacity:1;stroke:#fe0606;stroke-width:1.01138;stroke-opacity:1"
         d="m 1341.3047,-677.90018 -0.1561,47.71559 14.7029,0.27642 0.031,9.44139 7.8709,0.0294 0.093,-13.37223 c 4.627,-0.32305 11.5694,2.77267 12.6552,13.02163 l 20.3445,0.11377 -0.1288,-57.42028 z"
         id="1008"
         sodipodi:nodetypes="cccccccccc"
         inkscape:label="1008" /><path
         style="fill:#000000;fill-opacity:1;stroke:#fe0606;stroke-opacity:1"
         d="m 1340.5393,-677.82701 3e-4,48.01051 -13.3543,0.11788 -0.03,9.44326 -7.6933,0.0294 -0.091,-13.37488 c -4.5225,-0.32311 -11.3082,2.77322 -12.3695,13.02421 l -19.8852,0.11379 0.1259,-57.43165 z"
         id="1007"
         sodipodi:nodetypes="cccccccccc"
         inkscape:label="1007" /><path
         style="fill:#000000;fill-opacity:1;stroke:#fe0606;stroke-width:1.19311;stroke-opacity:1"
         d="m 1458.7917,-505.68501 -0.1346,-83.07729 29.2384,0.1956 -0.1372,12.98334 c 1.3662,0.11267 11.5496,0.0711 12.5437,-13.01923 l 11.7078,-0.0129 0.7505,83.2088 z"
         id="1032"
         sodipodi:nodetypes="cccccccc"
         inkscape:label="1032" /><path
         style="fill:#000000;fill-opacity:1;stroke:#fe0606;stroke-width:1.30465;stroke-opacity:1"
         d="m 1458.8914,-505.33722 0.1192,-64.75032 c 8.3214,0.45548 18.4929,-1.82437 18.1806,-15.04561 l -18.1529,9.3e-4 -0.1169,-3.60704 -37.7073,-0.33878 c -1.4422,11.39817 -8.1081,11.26934 -13.2297,11.63083 v -11.63569 l -12.6714,0.038 0.6878,83.99325 z"
         id="1031"
         sodipodi:nodetypes="ccccccccccc"
         inkscape:label="1031" /><path
         style="fill:#000000;fill-opacity:1;stroke:#fe0606;stroke-width:1.19311;stroke-opacity:1"
         d="m 1453.4986,-448.56649 -0.1347,86.39676 33.0962,0.34269 -0.1372,-12.98334 c 1.3662,-0.11267 11.4413,-1.3104 12.4354,11.77993 l 13.9506,-0.0544 -0.4959,-81.90221 -24.5625,-4.00945 z"
         id="1049"
         sodipodi:nodetypes="ccccccccc"
         inkscape:label="1049" /><path
         style="fill:#000000;fill-opacity:1;stroke:#fe0606;stroke-width:1.26011;stroke-opacity:1"
         d="m 1452.751,-447.99477 0.1103,65.26444 c 7.7019,-0.45909 17.1161,1.83887 16.8271,15.16508 l -16.8015,-9.3e-4 0.01,5.48999 -34.9586,-0.10612 c -1.3349,-11.48868 -7.5632,-12.76555 -12.3035,-13.1299 l -0.1184,13.07085 -10.1645,0.0133 -0.8094,-86.05459 z"
         id="1048"
         sodipodi:nodetypes="ccccccccccc"
         inkscape:label="1048" /><path
         style="fill:#000000;fill-opacity:1;stroke:#fe0606;stroke-width:1.01355;stroke-dasharray:none;stroke-opacity:1"
         d="m 1395.6693,-505.79118 95.5143,-0.47727 c -0.6685,-5.37791 2.6408,-13.39606 13.6858,-13.43225 l 0.2998,14.63781 7.0524,0.13286 c -0.4151,17.7444 0.1948,42.01954 -0.086,59.76653 l -7.4016,0.11786 -0.1298,12.61349 c -11.8255,1.17982 -14.0347,-7.72567 -14.4247,-16.63115 l -95.4862,-0.14134 z"
         id="1037"
         sodipodi:nodetypes="ccccccccccc"
         inkscape:label="1037" /><path
         style="fill:#000000;fill-opacity:1;stroke:#fe0606;stroke-width:0.981439;stroke-opacity:1"
         d="m 1340.7119,-533.97046 0.2851,-55.07433 7.246,-0.0438 -0.1218,12.3609 c 4.5255,0.29195 10.9412,-2.6303 11.9577,-12.50531 l 35.3146,0.14441 0.1269,55.30051 z"
         id="1030"
         sodipodi:nodetypes="cccccccc"
         inkscape:label="1030" /><path
         style="fill:#000000;fill-opacity:1;stroke:#fe0606;stroke-width:1.00037;stroke-opacity:1"
         d="m 1339.7108,-533.21736 0.3541,-55.64107 -7.4819,-0.0441 0.1257,12.43746 c -4.6728,0.29375 -11.2974,-2.64659 -12.3471,-12.58275 l -36.4644,0.14529 -0.131,55.64298 z"
         id="1029"
         sodipodi:nodetypes="cccccccc"
         inkscape:label="1029" /><path
         style="fill:#000000;fill-opacity:1;stroke:#fe0606;stroke-width:1.0256;stroke-opacity:1"
         d="m 1196.379,-533.05608 57.4046,0.23465 -0.03,-24.7877 c -13.9573,-0.70024 -14.6426,-12.21031 -14.2518,-13.57139 l 14.1449,-0.28285 0.069,-18.58079 -57.4062,-0.007 z"
         id="1028"
         sodipodi:nodetypes="cccccccc"
         inkscape:label="1028" /><path
         style="fill:#000000;fill-opacity:1;stroke:#fe0606;stroke-opacity:1"
         d="m 1111.4806,-534.01337 -0.3428,-57.42968 7.2435,-0.0455 -0.1217,12.83726 c 4.5239,0.3032 10.9374,-2.73167 11.9536,-12.98723 l 35.3025,0.14997 0.1269,57.43165 z"
         id="1027"
         sodipodi:nodetypes="cccccccc"
         inkscape:label="1027" /><path
         style="fill:#000000;fill-opacity:1;stroke:#fe0606;stroke-opacity:1"
         d="m 1108.7772,-534.37223 0.3428,-57.42968 -7.2435,-0.0455 0.1217,12.83726 c -4.5239,0.3032 -10.9374,-2.73167 -11.9536,-12.98723 l -35.3025,0.14997 -0.1269,57.43165 z"
         id="1026"
         sodipodi:nodetypes="cccccccc"
         inkscape:label="1026" /><path
         style="fill:#000000;fill-opacity:1;stroke:#fe0606;stroke-width:1.03541;stroke-opacity:1"
         d="m 1337.3919,-418.21355 -0.3677,57.39428 7.7703,0.0455 -0.1305,-12.82935 c 4.8529,-0.30301 11.7329,2.72999 12.823,12.97923 l 37.8702,-0.14988 0.1362,-57.39624 z"
         id="1047"
         sodipodi:nodetypes="cccccccc"
         inkscape:label="1047" /><path
         style="fill:#000000;fill-opacity:1;stroke:#fe0606;stroke-opacity:1"
         d="m 1337.928,-418.05189 0.3428,57.42968 -7.2435,0.0455 0.1217,-12.83726 c -4.5239,-0.3032 -10.9374,2.73167 -11.9536,12.98723 l -35.3025,-0.14997 -0.1269,-57.43165 z"
         id="1046"
         sodipodi:nodetypes="cccccccc"
         inkscape:label="1046" /><path
         style="fill:#000000;fill-opacity:1;stroke:#fe0606;stroke-width:0.914597;stroke-opacity:1"
         d="m 1198.3502,-417.43121 51.7119,-0.20714 -0.026,21.88267 c -12.5731,0.61817 -13.8249,10.90619 -13.4728,12.10776 l 13.3765,0.12282 -0.319,21.09763 -51.4595,-0.24775 z"
         id="1045"
         sodipodi:nodetypes="cccccccc"
         inkscape:label="1045" /><path
         style="fill:#000000;fill-opacity:1;stroke:#fe0606;stroke-opacity:1"
         d="m 1108.2564,-420.56392 0.3428,57.42968 -7.2435,0.0455 0.1217,-12.83726 c -4.5239,-0.3032 -10.9374,2.73167 -11.9536,12.98723 l -35.3025,-0.14997 -0.1269,-57.43165 z"
         id="1043"
         sodipodi:nodetypes="cccccccc"
         inkscape:transform-center-x="-54.120597"
         inkscape:transform-center-y="-0.6648441"
         inkscape:label="1043" /><path
         style="fill:#000000;fill-opacity:1;stroke:#fe0606;stroke-width:1.00833;stroke-opacity:1"
         d="m 1624.4631,-416.1601 0.098,53.84965 -29.3389,0.19499 -0.099,-13.12987 c -4.9039,-0.30296 -12.2616,2.97188 -13.4126,12.58368 l -16.1144,0.16943 0.1363,-53.85061 z"
         id="1051"
         sodipodi:nodetypes="cccccccc"
         inkscape:label="1051" /><path
         style="fill:#000000;fill-opacity:1;stroke:#fe0606;stroke-width:0.957317;stroke-opacity:1"
         d="m 1513.2709,-416.01776 -0.089,53.01796 28.4293,0.28168 0.1826,-13.01679 c 4.4896,-0.29828 12.5181,3.6436 13.5717,13.10696 l 11.8911,0.12196 -0.2173,-53.69168 z"
         id="1050"
         sodipodi:nodetypes="cccccccc"
         inkscape:label="1050" /><path
         style="fill:#000000;fill-opacity:1;stroke:#fe0606;stroke-width:1.01285;stroke-opacity:1"
         d="m 1456.0384,-677.81782 -0.3518,57.41683 7.4326,0.0455 -0.1249,-12.83439 c 4.642,-0.30313 11.2229,2.73106 12.2656,12.98432 l 36.2238,-0.14993 0.1303,-57.4188 z"
         id="1010"
         sodipodi:nodetypes="cccccccc"
         inkscape:label="1010" /><path
         style="fill:#000000;fill-opacity:1;stroke:#fe0606;stroke-width:0.914597;stroke-opacity:1"
         d="m 1173.3933,-420.30447 0.1643,57.09435 -43.1004,0.0572 c -0.6405,-12.57203 -11.8727,-14.61295 -13.0737,-14.25877 l 0.038,14.60299 -6.9853,-0.14321 -0.097,-57.80369 z"
         id="1044"
         sodipodi:nodetypes="cccccccc"
         inkscape:transform-center-x="0.36943299"
         inkscape:transform-center-y="0.033638926"
         inkscape:label="1044" /><path
         style="fill:#000000;fill-opacity:1;stroke:#fe0606;stroke-width:0.872003;stroke-opacity:1"
         d="m 1223.8053,-532.64242 -0.1046,55.04312 -55.9414,-0.18567 -0.086,-54.99623 13.0192,0.0322 c 0.3143,-5.13419 0.1799,-16.99703 13.5926,-16.07542 l 0.3133,16.1098 z"
         id="1035"
         sodipodi:nodetypes="cccccccc"
         inkscape:transform-center-x="0.33557851"
         inkscape:transform-center-y="0.033663672"
         inkscape:label="1035" /><path
         style="fill:#000000;fill-opacity:1;stroke:#fe0606;stroke-width:0.906124;stroke-opacity:1"
         d="m 1223.8771,-532.45369 0.1129,55.01674 60.434,-0.18558 0.093,-54.96988 -14.0648,0.0322 c -0.3395,-5.13173 -0.1943,-16.98888 -14.6842,-16.06772 l -0.3385,16.10209 z"
         id="1036"
         sodipodi:nodetypes="cccccccc"
         inkscape:transform-center-x="-0.36253079"
         inkscape:transform-center-y="0.033648057"
         inkscape:label="1036" /><path
         style="fill:#000000;fill-opacity:1;stroke:#fe0606;stroke-width:0.9349;stroke-opacity:1"
         d="m 1224.1606,-417.96194 0.1126,-58.73582 60.2598,0.19812 0.092,58.68579 -14.0242,-0.0344 c -0.3385,5.47863 -0.1938,18.13732 -14.6419,17.15388 l -0.3375,-17.19057 z"
         id="1040"
         sodipodi:nodetypes="cccccccc"
         inkscape:transform-center-x="-0.36148099"
         inkscape:transform-center-y="-0.035928396"
         inkscape:label="1040" /><path
         style="fill:#000000;fill-opacity:1;stroke:#fe0606;stroke-width:0.91017;stroke-opacity:1"
         d="m 1223.4273,-417.50973 -0.1045,-60.00783 -55.9034,0.20242 0.3545,56.9828 5.589,0.0587 0.1392,2.92222 6.8419,-0.0421 c 0.314,5.59728 0.1798,18.5301 13.5834,17.52536 l 0.3131,-17.56284 z"
         id="1039"
         sodipodi:nodetypes="cccccccccc"
         inkscape:transform-center-x="0.33535807"
         inkscape:transform-center-y="-0.036701412"
         inkscape:label="1039" /><path
         style="fill:#000000;fill-opacity:1;stroke:#fe0606;stroke-opacity:1"
         d="m 1052.5755,-593.77465 -0.6883,56.73317 -8.096,-0.0488 0.1023,-12.02927 c -4.5227,-0.32006 -13.1005,4.04034 -12.125,16.51239 l -9.4692,0.0773 -0.1448,-60.85399 z"
         id="1025"
         sodipodi:nodetypes="cccccccc"
         inkscape:label="1025" /><path
         style="fill:#000000;fill-opacity:1;stroke:#fe0606;stroke-width:0.670544;stroke-opacity:1"
         d="m 1051.9009,-452.16971 -30.1319,-0.12943 0.071,-7.35541 13.5737,-0.15098 c -0.1065,-8.26106 -7.441,-11.59113 -13.7343,-12.38103 l -0.077,-30.70161 30.2225,-0.22433 z"
         id="store2"
         sodipodi:nodetypes="cccccccc"
         inkscape:label="store" /><path
         style="fill:#000000;fill-opacity:1;stroke:#fe0606;stroke-width:0.519043;stroke-opacity:1"
         d="m 1021.5346,-391.31048 -0.2142,-30.14797 9.8094,-0.09 c 0.1945,-2.52117 -0.5625,-12.65495 14.0959,-13.84392 l -0.094,13.4501 6.8888,0.024 -0.115,30.78774 z"
         id="1041"
         sodipodi:nodetypes="cccccccc"
         inkscape:label="1041" /><path
         style="fill:#000000;fill-opacity:1;stroke:#fe0606;stroke-width:0.53174;stroke-opacity:1"
         d="m 1021.4214,-390.76818 0.1272,30.00165 5.0924,0.0169 -0.2291,-16.68332 c 10.8433,1.464 12.4016,8.40218 12.9977,13.84458 l 12.5708,-0.0317 -0.083,-27.17854 z"
         id="1042"
         sodipodi:nodetypes="cccccccc"
         inkscape:label="1042" /><path
         style="fill:#000000;fill-opacity:1;stroke:#fe0606;stroke-width:0.668093;stroke-opacity:1"
         d="m 1627.2879,-588.39802 0.1735,56.62297 13.9933,0.0641 c 0.4054,4.80209 1.6127,9.81315 11.7115,12.69229 l 0.1657,-12.61344 5.6736,-0.0226 -0.044,-56.65927 z"
         id="dust 2"
         sodipodi:nodetypes="cccccccc"
         inkscape:label="dust 2" /><path
         style="fill:#000000;fill-opacity:1;stroke:#fe0606;stroke-width:0.714776;stroke-opacity:1"
         d="m 1625.1569,-362.98817 0.3623,-55.03096 15.2978,0.12392 c 0.2129,-4.36882 3.0542,-10.30065 13.3995,-12.22639 l 0.1949,12.27825 4.034,-0.0218 -0.052,54.9353 z"
         id="dust_4"
         sodipodi:nodetypes="cccccccc"
         inkscape:label="dust" /><path
         style="fill:#000000;fill-opacity:1;stroke:#fe0606;stroke-width:1.02328;stroke-opacity:1"
         d="m 1855.625,-417.16212 0.098,55.47262 -29.3314,0.20087 -0.099,-13.52559 c -4.9027,-0.31209 -12.2585,3.06145 -13.4092,12.96294 l -16.1103,0.17454 0.1363,-55.47361 z"
         id="1098"
         sodipodi:nodetypes="cccccccc"
         inkscape:label="1098" /><path
         style="fill:#000000;fill-opacity:1;stroke:#fe0606;stroke-width:0.989425;stroke-opacity:1"
         d="m 1741.7943,-416.75538 -0.091,55.24115 29.1461,0.29349 0.1872,-13.56262 c 4.6028,-0.31079 12.8338,3.79638 13.9139,13.65657 l 12.1909,0.12707 -0.2227,-55.94311 z"
         id="1097"
         sodipodi:nodetypes="cccccccc"
         inkscape:label="1097" /><path
         style="fill:#000000;fill-opacity:1;stroke:#fe0606;stroke-width:1.00833;stroke-opacity:1"
         d="m 1855.8863,-534.34136 0.098,-53.84965 -29.3389,-0.19499 -0.099,13.12987 c -4.9039,0.30296 -12.2616,-2.97188 -13.4126,-12.58368 l -16.1144,-0.16943 0.1363,53.85061 z"
         id="1082"
         sodipodi:nodetypes="cccccccc"
         inkscape:label="1082" /><path
         style="fill:#000000;fill-opacity:1;stroke:#fe0606;stroke-width:1.03148;stroke-opacity:1"
         d="m 1913.4284,-676.13356 -0.3649,57.39821 7.7109,0.0455 -0.1296,-12.83022 c 4.8158,-0.30303 11.6432,2.73017 12.725,12.98011 l 37.5805,-0.14989 0.1351,-57.40018 z"
         id="1067"
         sodipodi:nodetypes="cccccccc"
         inkscape:label="1067" /><path
         style="fill:#000000;fill-opacity:1;stroke:#fe0606;stroke-width:1.0125;stroke-opacity:1"
         d="m 2083.8839,-676.31766 -0.3515,57.41718 7.4273,0.0455 -0.1248,-12.83446 c 4.6387,-0.30314 11.2149,2.73107 12.2569,12.9844 l 36.1983,-0.14994 0.1302,-57.41915 z"
         id="1070"
         sodipodi:nodetypes="cccccccc"
         inkscape:label="1070" /><path
         style="fill:#000000;fill-opacity:1;stroke:#fe0606;stroke-width:1.0208;stroke-opacity:1"
         d="m 2140.7629,-676.2482 -0.3573,57.40889 7.5507,0.0455 -0.1268,-12.83261 c 4.7157,-0.30309 11.4012,2.73068 12.4605,12.98253 l 36.7998,-0.14992 0.1323,-57.41085 z"
         id="1071"
         sodipodi:nodetypes="cccccccc"
         inkscape:label="1071" /><path
         style="fill:#000000;fill-opacity:1;stroke:#fe0606;stroke-width:1.01763;stroke-opacity:1"
         d="m 2253.7462,-676.25539 0.3551,57.41206 -7.5034,0.0455 0.126,-12.83332 c -4.6862,-0.3031 -11.3299,2.73083 -12.3825,12.98325 l -36.5694,-0.14993 -0.1315,-57.41402 z"
         id="1072"
         sodipodi:nodetypes="cccccccc"
         inkscape:label="1072" /><path
         style="fill:#000000;fill-opacity:1;stroke:#fe0606;stroke-width:1.02261;stroke-opacity:1"
         d="m 2254.3119,-676.50105 -0.3586,57.40708 7.5777,0.0455 -0.1273,-12.83221 c 4.7326,-0.30308 11.442,2.7306 12.5051,12.98212 l 36.9313,-0.14991 0.1328,-57.40905 z"
         id="1073"
         sodipodi:nodetypes="cccccccc"
         inkscape:label="1073" /><path
         style="fill:#000000;fill-opacity:1;stroke:#fe0606;stroke-width:1.46894;stroke-opacity:1"
         d="m 2431.888,-675.47219 -0.1424,56.19983 -68.6375,-0.35718 -0.094,-13.58411 c -9.842,-0.30073 -13.3626,7.66962 -13.6105,13.72133 l -37.4823,0.392 -0.2761,-56.96303 z"
         id="1074"
         sodipodi:nodetypes="cccccccc"
         inkscape:label="1074" /><path
         style="fill:#000000;fill-opacity:1;stroke:#fe0606;stroke-opacity:1"
         d="m 2432.1546,-563.86165 -57.43,0.26852 -0.036,-7.24356 12.8371,0.13831 c 0.309,-4.5235 -2.7176,-10.94092 -12.9718,-11.97039 l 0.1956,-35.57142 57.4318,0.21655 z"
         id="1075"
         sodipodi:nodetypes="cccccccc"
         inkscape:label="1075" /><path
         style="fill:#000000;fill-opacity:1;stroke:#fe0606;stroke-width:1.02715;stroke-opacity:1"
         d="m 2432.0994,-563.42668 -57.403,-0.28343 -0.036,7.64587 12.8311,-0.14599 c 0.3089,4.77474 -2.7163,11.54858 -12.9657,12.63523 l 0.1956,37.26298 57.4046,0.0555 z"
         id="1076"
         sodipodi:nodetypes="cccccccc"
         inkscape:label="1076" /><path
         style="fill:#000000;fill-opacity:1;stroke:#fe0606;stroke-width:1.02321;stroke-opacity:1"
         d="m 2432.1892,-448.86135 -57.4069,0.28124 -0.036,-7.5867 12.8319,0.14486 c 0.309,-4.73779 -2.7164,-11.45921 -12.9665,-12.53745 l 0.1956,-36.97461 57.4085,-0.0551 z"
         id="1077"
         sodipodi:nodetypes="cccccccc"
         inkscape:label="1077" /><path
         style="fill:#000000;fill-opacity:1;stroke:#fe0606;stroke-width:1.03187;stroke-opacity:1"
         d="m 2432.3925,-448.50208 -57.3983,-0.28607 -0.036,7.71688 12.83,-0.14735 c 0.3089,4.81908 -2.716,11.65584 -12.9646,12.75257 l 0.1955,37.60904 57.4,0.056 z"
         id="1078"
         sodipodi:nodetypes="cccccccc"
         inkscape:label="1078" /><path
         style="fill:#000000;fill-opacity:1;stroke:#fe0606;stroke-width:1.02162;stroke-opacity:1"
         d="m 2432.4937,-333.55044 -57.4085,0.28037 -0.036,-7.56304 12.8323,0.14441 c 0.3089,-4.723 -2.7165,-11.42346 -12.9669,-12.49834 l 0.1955,-36.85926 57.4102,-0.0549 z"
         id="1079"
         sodipodi:nodetypes="cccccccc"
         inkscape:label="1079" /><path
         style="fill:#000000;fill-opacity:1;stroke:#fe0606;stroke-width:1.01447;stroke-opacity:1"
         d="m 2432.5562,-332.90495 -57.4156,-0.27642 -0.036,7.45654 12.8338,-0.14238 c 0.309,4.6565 -2.7168,11.26261 -12.9685,12.32235 l 0.1956,36.34023 57.4173,0.0541 z"
         id="1080"
         sodipodi:nodetypes="cccccccc"
         inkscape:label="1080" /><path
         style="fill:#000000;fill-opacity:1;stroke:#fe0606;stroke-opacity:1"
         d="m 2262.8728,-280.44331 -0.09,-57.43063 7.2436,-0.0136 -0.1782,12.83659 c 4.5226,0.32311 10.9494,-2.68351 12.0107,-12.9345 l 35.3015,0.30533 -0.1259,57.43165 z"
         id="1115"
         sodipodi:nodetypes="cccccccc"
         inkscape:label="1115" /><path
         style="fill:#000000;fill-opacity:1;stroke:#fe0606;stroke-width:1.03158;stroke-opacity:1"
         d="m 2260.9693,-279.95154 0.096,-57.3991 -7.7126,-0.0136 0.1897,12.82954 c -4.8153,0.32293 -11.6583,-2.68204 -12.7883,-12.9274 l -37.5873,0.30516 0.134,57.40012 z"
         id="1114"
         sodipodi:nodetypes="cccccccc"
         inkscape:label="1114" /><path
         style="fill:#000000;fill-opacity:1;stroke:#fe0606;stroke-width:1.02713;stroke-opacity:1"
         d="m 2145.9109,-280.20309 -0.095,-57.40354 7.6457,-0.0136 -0.1881,12.83054 c 4.7735,0.32295 11.557,-2.68225 12.6772,-12.9284 l 37.2607,0.30518 -0.1328,57.40456 z"
         id="1113"
         sodipodi:nodetypes="cccccccc"
         inkscape:label="1113" /><path
         style="fill:#000000;fill-opacity:1;stroke:#fe0606;stroke-opacity:1"
         d="m 2144.8461,-280.08257 0.09,-57.43063 -7.2436,-0.0136 0.1782,12.83659 c -4.5226,0.32311 -10.9494,-2.68351 -12.0107,-12.9345 l -35.3015,0.30533 0.1259,57.43165 z"
         id="1112"
         sodipodi:nodetypes="cccccccc"
         inkscape:label="1112" /><path
         style="fill:#000000;fill-opacity:1;stroke:#fe0606;stroke-width:1.02264;stroke-opacity:1"
         d="m 2032.5601,-280.36116 0.1596,-47.70625 -15.0348,-0.27636 -0.032,-9.43954 -8.0487,-0.0294 -0.095,13.36962 c -4.7314,0.32298 -11.8305,-2.77213 -12.9409,-13.01908 l -20.8038,-0.11375 0.1317,57.40904 z"
         id="1110"
         sodipodi:nodetypes="cccccccccc"
         inkscape:label="1110" /><path
         style="fill:#000000;fill-opacity:1;stroke:#fe0606;stroke-width:1.08394;stroke-opacity:1"
         d="m 1919.6084,-280.09123 0.106,-57.34683 -8.5231,-0.0136 0.2097,12.81786 c -5.3214,0.32264 -12.8835,-2.67959 -14.1323,-12.91562 l -41.5372,0.30488 0.1481,57.34784 z"
         id="1108"
         sodipodi:nodetypes="cccccccc"
         inkscape:label="1108" /><path
         style="fill:#000000;fill-opacity:1;stroke:#fe0606;stroke-opacity:1"
         d="m 1920.7981,-280.16142 -0.09,-57.43063 7.2436,-0.0136 -0.1782,12.83659 c 4.5225,0.32311 10.9493,-2.68351 12.0107,-12.9345 l 35.3015,0.30533 -0.1259,57.43165 z"
         id="1109"
         sodipodi:nodetypes="cccccccc"
         inkscape:label="1109" /><path
         style="fill:#000000;fill-opacity:1;stroke:#fe0606;stroke-width:1.02306;stroke-opacity:1"
         d="m 2033.7345,-280.08137 -4e-4,-47.99128 13.9829,-0.11783 0.032,-9.43948 8.0554,-0.0294 0.095,13.36952 c 4.7354,0.32298 11.8404,-2.77211 12.9517,-13.01899 l 20.8211,-0.11375 -0.1318,57.40865 z"
         id="1111"
         sodipodi:nodetypes="cccccccccc"
         inkscape:label="1111" /><path
         style="fill:#000000;fill-opacity:1;stroke:#fe0606;stroke-width:1.01138;stroke-opacity:1"
         d="m 2027.5319,-676.22526 0.1561,47.71559 -14.7029,0.27642 -0.031,9.44139 -7.871,0.0294 -0.093,-13.37223 c -4.6269,-0.32305 -11.5693,2.77267 -12.6552,13.02163 l -20.3444,0.11377 0.1288,-57.42028 z"
         id="1068"
         sodipodi:nodetypes="cccccccccc"
         inkscape:label="1068" /><path
         style="fill:#000000;fill-opacity:1;stroke:#fe0606;stroke-opacity:1"
         d="m 2028.2973,-676.15209 -4e-4,48.01051 13.3544,0.11788 0.03,9.44326 7.6933,0.0294 0.091,-13.37488 c 4.5225,-0.32311 11.3082,2.77322 12.3695,13.02421 l 19.8852,0.11379 -0.1259,-57.43165 z"
         id="1069"
         sodipodi:nodetypes="cccccccccc"
         inkscape:label="1069" /><path
         style="fill:#000000;fill-opacity:1;stroke:#fe0606;stroke-width:1.19311;stroke-opacity:1"
         d="m 1910.0448,-504.01008 0.1346,-83.07729 -29.2384,0.1956 0.1372,12.98334 c -1.3662,0.11267 -11.5496,0.0711 -12.5437,-13.01923 l -11.7078,-0.0129 -0.7505,83.2088 z"
         id="1083"
         sodipodi:nodetypes="cccccccc"
         inkscape:label="1083" /><path
         style="fill:#000000;fill-opacity:1;stroke:#fe0606;stroke-width:1.30465;stroke-opacity:1"
         d="m 1909.9451,-503.66229 -0.1192,-64.75032 c -8.3214,0.45548 -18.4929,-1.82437 -18.1806,-15.04561 l 18.1529,9.3e-4 0.1169,-3.60704 37.7073,-0.33878 c 1.4422,11.39817 8.1081,11.26934 13.2297,11.63083 v -11.63569 l 12.6714,0.038 -0.6878,83.99325 z"
         id="1084"
         sodipodi:nodetypes="ccccccccccc"
         inkscape:label="1084" /><path
         style="fill:#000000;fill-opacity:1;stroke:#fe0606;stroke-width:1.19311;stroke-opacity:1"
         d="m 1915.3379,-446.89157 0.1347,86.39676 -33.0962,0.34269 0.1372,-12.98334 c -1.3662,-0.11267 -11.4413,-1.3104 -12.4354,11.77993 l -13.9506,-0.0544 0.4958,-81.90221 24.5626,-4.00945 z"
         id="1099"
         sodipodi:nodetypes="ccccccccc"
         inkscape:label="1099" /><path
         style="fill:#000000;fill-opacity:1;stroke:#fe0606;stroke-width:1.26011;stroke-opacity:1"
         d="m 1916.0855,-446.31985 -0.1103,65.26444 c -7.7019,-0.45909 -17.1162,1.83887 -16.8271,15.16508 l 16.8014,-9.3e-4 -0.01,5.48999 34.9587,-0.10612 c 1.3348,-11.48868 7.5631,-12.76555 12.3034,-13.1299 l 0.1184,13.07085 10.1646,0.0133 0.8094,-86.05459 z"
         id="1100"
         sodipodi:nodetypes="ccccccccccc"
         inkscape:label="1100" /><path
         style="fill:#000000;fill-opacity:1;stroke:#fe0606;stroke-width:1.01355;stroke-dasharray:none;stroke-opacity:1"
         d="m 1973.1671,-504.11625 -95.5142,-0.47728 c 0.6685,-5.3779 -2.6408,-13.39605 -13.6858,-13.43225 l -0.2998,14.63782 -7.0525,0.13286 c 0.4151,17.74439 -0.1947,42.01954 0.086,59.76652 l 7.4016,0.11787 0.1297,12.61349 c 11.8255,1.17982 14.0348,-7.72567 14.4248,-16.63116 l 95.4861,-0.14134 z"
         id="1092"
         sodipodi:nodetypes="ccccccccccc"
         inkscape:label="1092" /><path
         style="fill:#000000;fill-opacity:1;stroke:#fe0606;stroke-width:0.981439;stroke-opacity:1"
         d="m 2028.1247,-532.29554 -0.2851,-55.07433 -7.246,-0.0438 0.1218,12.3609 c -4.5255,0.29195 -10.9412,-2.6303 -11.9577,-12.50531 l -35.3146,0.14441 -0.1269,55.30051 z"
         id="1085"
         sodipodi:nodetypes="cccccccc"
         inkscape:label="1085" /><path
         style="fill:#000000;fill-opacity:1;stroke:#fe0606;stroke-width:1.00037;stroke-opacity:1"
         d="m 2029.1258,-531.54244 -0.3541,-55.64107 7.4819,-0.0441 -0.1257,12.43746 c 4.6728,0.29375 11.2974,-2.64659 12.347,-12.58275 l 36.4645,0.14529 0.131,55.64298 z"
         id="1086"
         sodipodi:nodetypes="cccccccc"
         inkscape:label="1086" /><path
         style="fill:#000000;fill-opacity:1;stroke:#fe0606;stroke-width:1.0256;stroke-opacity:1"
         d="m 2172.4576,-531.38116 -57.4046,0.23465 0.03,-24.7877 c 13.9572,-0.70024 14.6425,-12.21031 14.2517,-13.57139 l -14.1448,-0.28285 -0.068,-18.58079 57.4062,-0.007 z"
         id="1087"
         sodipodi:nodetypes="cccccccc"
         inkscape:label="1087" /><path
         style="fill:#000000;fill-opacity:1;stroke:#fe0606;stroke-opacity:1"
         d="m 2257.356,-532.33845 0.3428,-57.42968 -7.2435,-0.0455 0.1217,12.83726 c -4.5239,0.3032 -10.9374,-2.73167 -11.9536,-12.98723 l -35.3025,0.14997 -0.1269,57.43165 z"
         id="1088"
         sodipodi:nodetypes="cccccccc"
         inkscape:label="1088" /><path
         style="fill:#000000;fill-opacity:1;stroke:#fe0606;stroke-opacity:1"
         d="m 2260.0594,-532.69731 -0.3428,-57.42968 7.2435,-0.0455 -0.1217,12.83726 c 4.5239,0.3032 10.9374,-2.73167 11.9536,-12.98723 l 35.3025,0.14997 0.1269,57.43165 z"
         id="1089"
         sodipodi:nodetypes="cccccccc"
         inkscape:label="1089" /><path
         style="fill:#000000;fill-opacity:1;stroke:#fe0606;stroke-opacity:1"
         d="m 2027.4875,-416.55639 0.3428,57.42968 -7.2435,0.0455 0.1217,-12.83726 c -4.5239,-0.3032 -10.9374,2.73167 -11.9536,12.98723 l -35.3025,-0.14997 -0.1269,-57.43165 z"
         id="1101"
         sodipodi:nodetypes="cccccccc"
         inkscape:label="1101" /><path
         style="fill:#000000;fill-opacity:1;stroke:#fe0606;stroke-opacity:1"
         d="m 2030.9086,-416.37697 -0.3428,57.42968 7.2435,0.0455 -0.1217,-12.83726 c 4.5239,-0.3032 10.9374,2.73167 11.9536,12.98723 l 35.3025,-0.14997 0.1269,-57.43165 z"
         id="1102"
         sodipodi:nodetypes="cccccccc"
         inkscape:label="1102" /><path
         style="fill:#000000;fill-opacity:1;stroke:#fe0606;stroke-width:0.914597;stroke-opacity:1"
         d="m 2170.4863,-415.75629 -51.7118,-0.20714 0.027,21.88267 c 12.5731,0.61817 13.8248,10.90619 13.4728,12.10776 l -13.3765,0.12282 0.3189,21.09763 51.4596,-0.24775 z"
         id="1103"
         sodipodi:nodetypes="cccccccc"
         inkscape:label="1103" /><path
         style="fill:#000000;fill-opacity:1;stroke:#fe0606;stroke-opacity:1"
         d="m 2260.5802,-418.889 -0.3428,57.42968 7.2434,0.0455 -0.1216,-12.83726 c 4.5239,-0.3032 10.9373,2.73167 11.9535,12.98723 l 35.3026,-0.14997 0.1268,-57.43165 z"
         id="1105"
         sodipodi:nodetypes="cccccccc"
         inkscape:transform-center-x="-54.120597"
         inkscape:transform-center-y="-0.6648441"
         inkscape:label="1105" /><path
         style="fill:#000000;fill-opacity:1;stroke:#fe0606;stroke-width:1.01285;stroke-opacity:1"
         d="m 1912.7982,-676.1429 0.3517,57.41683 -7.4325,0.0455 0.1249,-12.83439 c -4.642,-0.30313 -11.2229,2.73106 -12.2656,12.98432 l -36.2239,-0.14993 -0.1302,-57.4188 z"
         id="1066"
         sodipodi:nodetypes="cccccccc"
         inkscape:label="1066" /><path
         style="fill:#000000;fill-opacity:1;stroke:#fe0606;stroke-width:0.914597;stroke-opacity:1"
         d="m 2195.4433,-418.62955 -0.1643,57.09435 43.1004,0.0572 c 0.6405,-12.57203 11.8727,-14.61295 13.0737,-14.25877 l -0.037,14.60299 6.9853,-0.14321 0.097,-57.80369 z"
         id="1104"
         sodipodi:nodetypes="cccccccc"
         inkscape:transform-center-x="0.36943299"
         inkscape:transform-center-y="0.033638926"
         inkscape:label="1104" /><path
         style="fill:#000000;fill-opacity:1;stroke:#fe0606;stroke-width:0.872003;stroke-opacity:1"
         d="m 2145.0313,-530.9675 0.1046,55.04312 55.9414,-0.18567 0.086,-54.99623 -13.0192,0.0322 c -0.3143,-5.13419 -0.1799,-16.99703 -13.5926,-16.07542 l -0.3134,16.1098 z"
         id="1094"
         sodipodi:nodetypes="cccccccc"
         inkscape:transform-center-x="0.33557851"
         inkscape:transform-center-y="0.033663672"
         inkscape:label="1094" /><path
         style="fill:#000000;fill-opacity:1;stroke:#fe0606;stroke-width:0.906124;stroke-opacity:1"
         d="m 2144.9595,-530.77877 -0.1129,55.01674 -60.4341,-0.18558 -0.093,-54.96988 14.0649,0.0322 c 0.3394,-5.13173 0.1943,-16.98888 14.6842,-16.06772 l 0.3384,16.10209 z"
         id="1093"
         sodipodi:nodetypes="cccccccc"
         inkscape:transform-center-x="-0.36253079"
         inkscape:transform-center-y="0.033648057"
         inkscape:label="1093" /><path
         style="fill:#000000;fill-opacity:1;stroke:#fe0606;stroke-width:0.9349;stroke-opacity:1"
         d="m 2144.676,-416.28702 -0.1126,-58.73582 -60.2599,0.19812 -0.092,58.68579 14.0243,-0.0344 c 0.3385,5.47863 0.1938,18.13732 14.6419,17.15388 l 0.3375,-17.19057 z"
         id="1095"
         sodipodi:nodetypes="cccccccc"
         inkscape:transform-center-x="-0.36148099"
         inkscape:transform-center-y="-0.035928396"
         inkscape:label="1095" /><path
         style="fill:#000000;fill-opacity:1;stroke:#fe0606;stroke-width:0.91017;stroke-opacity:1"
         d="m 2145.4093,-415.83481 0.1044,-60.00783 55.9034,0.20242 -0.3544,56.9828 -5.589,0.0587 -0.1392,2.92222 -6.8419,-0.0421 c -0.3141,5.59728 -0.1798,18.5301 -13.5834,17.52536 l -0.3131,-17.56284 z"
         id="1096"
         sodipodi:nodetypes="cccccccccc"
         inkscape:transform-center-x="0.33535807"
         inkscape:transform-center-y="-0.036701412"
         inkscape:label="1096" /><path
         style="fill:#000000;fill-opacity:1;stroke:#fe0606;stroke-opacity:1"
         d="m 2316.2611,-592.09973 0.6883,56.73317 8.0959,-0.0488 -0.1022,-12.02927 c 4.5227,-0.32006 13.1005,4.04034 12.1249,16.51239 l 9.4693,0.0773 0.1448,-60.85399 z"
         id="1090"
         sodipodi:nodetypes="cccccccc"
         inkscape:label="1090" /><path
         style="fill:#000000;fill-opacity:1;stroke:#fe0606;stroke-width:0.670544;stroke-opacity:1"
         d="m 2319.3464,-498.13983 30.1319,0.12943 -0.071,7.35541 -13.5736,0.15098 c 0.1065,8.26106 7.441,11.59113 13.7342,12.38103 l 0.077,30.70161 -30.2224,0.22433 z"
         id="store"
         sodipodi:nodetypes="cccccccc"
         inkscape:label="store" /><path
         style="fill:#000000;fill-opacity:1;stroke:#fe0606;stroke-width:0.519043;stroke-opacity:1"
         d="m 2347.3019,-389.63556 0.2143,-30.14797 -9.8094,-0.09 c -0.1946,-2.52117 0.5625,-12.65495 -14.096,-13.84392 l 0.094,13.4501 -6.8887,0.024 0.115,30.78774 z"
         id="1106"
         sodipodi:nodetypes="cccccccc"
         inkscape:label="1106" /><path
         style="fill:#000000;fill-opacity:1;stroke:#fe0606;stroke-width:0.53174;stroke-opacity:1"
         d="m 2347.4152,-389.09326 -0.1272,30.00165 -5.0924,0.0169 0.2291,-16.68332 c -10.8434,1.464 -12.4016,8.40218 -12.9978,13.84458 l -12.5707,-0.0317 0.084,-27.17854 z"
         id="1107"
         sodipodi:nodetypes="cccccccc"
         inkscape:label="1107" /><path
         style="fill:#000000;fill-opacity:1;stroke:#fe0606;stroke-width:0.67978;stroke-opacity:1"
         d="m 1744.1784,-587.93143 -0.3275,55.06084 -8.9629,-0.0342 c -0.1925,4.37119 -2.4771,10.08183 -16.9789,12.14326 l -0.1762,-12.28492 -3.6467,0.0218 0.047,-54.96511 z"
         id="dust3"
         sodipodi:nodetypes="cccccccc"
         inkscape:label="dust 3" /><path
         style="fill:#000000;fill-opacity:1;stroke:#fe0606;stroke-width:0.659532;stroke-opacity:1"
         d="m 1741.4096,-361.85204 -0.3082,-55.0781 -8.4343,0.0342 c -0.1811,-4.37256 -2.331,-10.08499 -15.9775,-12.14707 l -0.1658,12.28877 -3.4316,-0.0218 0.044,54.98235 z"
         id="dust"
         sodipodi:nodetypes="cccccccc"
         inkscape:label="dust" /><path
         style="fill:#000000;fill-opacity:1;stroke:#fe0606;stroke-width:0.990033;stroke-opacity:1"
         d="m 1858.1937,-534.6985 -113.547,-0.61058 0.1484,96.30473 c 4.3864,0.15413 10.8899,3.95832 12.4836,13.83014 l -12.7193,0.11215 -0.086,7.34413 114.3876,-0.11937 z"
         id="1091"
         sodipodi:nodetypes="cccccccc"
         inkscape:label="1091" /></g></g></svg>
